<svg xmlns="http://www.w3.org/2000/svg" enable-background="new 0 0 64 64" viewBox="0 0 64 64" fill="#E9E9E9"><path fill="#E9E9E9" style="font-feature-settings:normal;font-variant-alternates:normal;font-variant-caps:normal;font-variant-ligatures:normal;font-variant-numeric:normal;font-variant-position:normal;isolation:auto;mix-blend-mode:normal;shape-padding:0;text-decoration-color:#000;text-decoration-line:none;text-decoration-style:solid;text-indent:0;text-orientation:mixed;text-transform:none" d="M17 22c-3.2959416 0-6 2.7040584-6 6s2.7040584 6 6 6c1.1451111 0 2.215265-.33226086 3.1289062-.89648438.66134603 1.4891882 2.8886113 1.0043414 2.8710938-.625v-8.9570312c.01213645-.84603631-.67741746-1.5347062-1.5234375-1.5214844-.58572587.010064-1.1120098.36015723-1.3476562.89648438-.91364125-.56422352-1.9837952-.89648438-3.1289062-.89648438zm0 3c1.6746212 0 3 1.3253788 3 3s-1.3253788 3-3 3-3-1.3253788-3-3 1.3253788-3 3-3zM43.5 29.992188a1.50015 1.50015 0 1 0 0 3h3.8398438l-4.8496094 6.6132812a1.50015 1.50015 0 0 0 1.2089844 2.3867188h6.8007812a1.50015 1.50015 0 1 0 0-3h-3.8398438l4.8496094-6.6132812a1.50015 1.50015 0 0 0-1.2089844-2.3867188z"/><path fill="#E9E9E9" style="font-feature-settings:normal;font-variant-alternates:normal;font-variant-caps:normal;font-variant-ligatures:normal;font-variant-numeric:normal;font-variant-position:normal;isolation:auto;mix-blend-mode:normal;shape-padding:0;text-decoration-color:#000;text-decoration-line:none;text-decoration-style:solid;text-indent:0;text-orientation:mixed;text-transform:none" d="m6.5 13c-2.4675142 0-4.5 2.0324854-4.5 4.5v21c0 2.4675137 2.0324847 4.5 4.5 4.5h6a1.50015 1.50015 0 1 0 0-3h-6c-0.84619307 0-1.5-0.65380826-1.5-1.5v-21c0-0.84619457 0.65380578-1.5 1.5-1.5h26.236328c0.99750266 0 1.6851595 0.86156075 1.4628906 1.8339844l-6.3222656 27.664062c-0.63635742 2.784062 1.5308584 5.5019531 4.3867188 5.5019531h25.236328c2.4675146 0 4.5-2.0324854 4.5-4.5v-21c0-2.4675155-2.0324866-4.5-4.5-4.5h-14a1.50015 1.50015 0 1 0 0 3h14c0.84619198 0 1.5 0.65380634 1.5 1.5v21c0 0.84619083-0.65380917 1.5-1.5 1.5h-25.236328c-0.99750646 0-1.6851606-0.86155383-1.4628906-1.8339844l6.3222656-27.664062c0.63635855-2.7840614-1.5308584-5.5019531-4.3867188-5.5019531zm12 27a1.50015 1.50015 0 1 0 0 3h3a1.50015 1.50015 0 1 0 0-3z"/></svg>